<svg width="17" height="20" viewBox="0 0 17 20" fill="none" xmlns="http://www.w3.org/2000/svg">
<path d="M1.96377 20C1.63755 19.9994 1.31711 19.9119 1.03396 19.7462C0.396368 19.3766 0 18.6592 0 17.8804V2.11965C0 1.33868 0.396368 0.623462 1.03396 0.253899C1.32385 0.0834848 1.65317 -0.00415108 1.9875 0.000151107C2.32183 0.0044533 2.64889 0.100536 2.9345 0.278356L16.1034 8.34136C16.3778 8.51739 16.6041 8.76183 16.7609 9.05176C16.9177 9.34169 17 9.66761 17 9.99896C17 10.3303 16.9177 10.6562 16.7609 10.9462C16.6041 11.2361 16.3778 11.4805 16.1034 11.6566L2.93238 19.7217C2.64009 19.9025 2.30532 19.9987 1.96377 20Z" fill="#00FFC5"/>
</svg>
