<svg width="19" height="22" viewBox="0 0 19 22" fill="none" xmlns="http://www.w3.org/2000/svg">
<path d="M17.6891 2.28276L4.80112 0.0237875C4.38768 -0.0484302 3.96226 0.0453014 3.61843 0.28437C3.27459 0.523439 3.0405 0.88827 2.96761 1.29863L0.0238988 17.8972C-0.0121055 18.1005 -0.00738883 18.3089 0.0377795 18.5105C0.0829478 18.712 0.167682 18.9027 0.287141 19.0717C0.406599 19.2407 0.55844 19.3847 0.733986 19.4955C0.909532 19.6062 1.10534 19.6815 1.31023 19.7171L14.1982 21.9761C14.4032 22.012 14.6132 22.0074 14.8164 21.9626C15.0195 21.9179 15.2118 21.8338 15.3822 21.7152C15.5526 21.5966 15.6977 21.4459 15.8093 21.2715C15.921 21.0972 15.9969 20.9028 16.0327 20.6993L18.9765 4.10075C19.0486 3.69023 18.9535 3.26808 18.7121 2.92716C18.4707 2.58623 18.1027 2.35444 17.6891 2.28276ZM10.2403 11.3491C10.208 11.5309 10.1123 11.6955 9.96987 11.8143C9.82748 11.933 9.64754 11.9981 9.46159 11.9983C9.41516 11.9983 9.36882 11.9944 9.32306 11.9865L5.21671 11.2666C5.02155 11.219 4.85196 11.0994 4.74233 10.9322C4.63271 10.765 4.59125 10.5627 4.62637 10.3663C4.66149 10.1699 4.77055 9.99409 4.93145 9.87456C5.09234 9.75503 5.29302 9.70072 5.49277 9.72265L9.59715 10.4386C9.69964 10.4564 9.79759 10.4941 9.8854 10.5495C9.97321 10.6049 10.0492 10.677 10.1089 10.7615C10.1686 10.8461 10.211 10.9415 10.2335 11.0423C10.2561 11.1432 10.2584 11.2474 10.2403 11.3491ZM14.8909 8.97424C14.8586 9.15584 14.763 9.32038 14.6208 9.43907C14.4786 9.55776 14.2989 9.62302 14.1132 9.62345C14.0663 9.62354 14.0196 9.61926 13.9736 9.61068L5.76092 8.17181C5.55413 8.13547 5.37035 8.01908 5.25001 7.84825C5.12967 7.67741 5.08263 7.46612 5.11924 7.26085C5.15585 7.05559 5.27311 6.87317 5.44522 6.75372C5.61733 6.63427 5.8302 6.58758 6.03699 6.62392L14.2497 8.06377C14.3523 8.08145 14.4503 8.11905 14.5383 8.1744C14.6262 8.22975 14.7022 8.30178 14.7621 8.38635C14.8219 8.47093 14.8643 8.56639 14.887 8.66727C14.9096 8.76814 14.9119 8.87246 14.8939 8.97424H14.8909ZM15.44 5.87846C15.4077 6.06023 15.312 6.2249 15.1696 6.34361C15.0272 6.46232 14.8473 6.52748 14.6613 6.52767C14.6149 6.52761 14.5686 6.52366 14.5228 6.51588L6.31009 5.07603C6.20536 5.06073 6.10478 5.02474 6.01432 4.97018C5.92385 4.91562 5.84532 4.84361 5.78339 4.75839C5.72145 4.67318 5.67737 4.5765 5.65374 4.47408C5.6301 4.37166 5.62741 4.26557 5.64581 4.1621C5.66421 4.05863 5.70333 3.95987 5.76086 3.87166C5.81839 3.78346 5.89316 3.70761 5.98074 3.64859C6.06832 3.58958 6.16694 3.5486 6.27076 3.52808C6.37457 3.50756 6.48149 3.50791 6.58516 3.52913L14.7979 4.968C14.9005 4.98556 14.9987 5.02307 15.0867 5.07838C15.1748 5.13368 15.2509 5.20569 15.3109 5.29028C15.3708 5.37486 15.4133 5.47036 15.436 5.57129C15.4587 5.67223 15.4611 5.77661 15.443 5.87846H15.44Z" fill="#00FFC5"/>
</svg>
